<svg xmlns="http://www.w3.org/2000/svg" viewBox="0 0 64 64" role="img" aria-label="Female avatar blossom">
  <defs>
    <linearGradient id="bg-f2" x1="0" y1="0" x2="1" y2="1">
      <stop offset="0" stop-color="#FFD6E7"/>
      <stop offset="1" stop-color="#E94B8F"/>
    </linearGradient>
  </defs>
  <circle cx="32" cy="32" r="32" fill="url(#bg-f2)"/>
  <path d="M6 64 Q32 46 58 64 Z" fill="#FFFFFF" fill-opacity="0.92"/>
  <path d="M15 32 Q15 13 32 13 Q49 13 49 32 Q49 38 47 42 Q42 35 32 35 Q22 35 17 42 Q15 38 15 32 Z" fill="#1F1410"/>
  <path d="M48 30 Q56 36 50 50 Q47 42 46 36 Z" fill="#1F1410"/>
  <ellipse cx="32" cy="34" rx="11" ry="13" fill="#E4B391"/>
  <path d="M22 28 Q28 22 32 22 Q36 22 42 28 Q37 25 32 25 Q27 25 22 28 Z" fill="#1F1410"/>
  <circle cx="28" cy="34" r="1.4" fill="#1F1F1F"/>
  <circle cx="36" cy="34" r="1.4" fill="#1F1F1F"/>
  <ellipse cx="26" cy="38" rx="1.8" ry="1.2" fill="#FF8FB1" opacity="0.55"/>
  <ellipse cx="38" cy="38" rx="1.8" ry="1.2" fill="#FF8FB1" opacity="0.55"/>
  <path d="M28 41 Q32 44 36 41" stroke="#1F1F1F" stroke-width="1.4" stroke-linecap="round" fill="none"/>
</svg>
