<svg xmlns="http://www.w3.org/2000/svg" viewBox="0 0 64 64" role="img" aria-label="Male avatar indigo">
  <defs>
    <linearGradient id="bg-m3" x1="0" y1="0" x2="1" y2="1">
      <stop offset="0" stop-color="#D7D2FF"/>
      <stop offset="1" stop-color="#4B45B5"/>
    </linearGradient>
  </defs>
  <circle cx="32" cy="32" r="32" fill="url(#bg-m3)"/>
  <path d="M6 64 Q32 46 58 64 Z" fill="#FFFFFF" fill-opacity="0.92"/>
  <path d="M19 28 Q21 18 32 18 Q43 18 45 28 Q44 24 32 24 Q20 24 19 28 Z" fill="#C99450"/>
  <ellipse cx="32" cy="33" rx="11" ry="12" fill="#F6D2B4"/>
  <path d="M20 28 Q26 22 32 22 Q38 22 44 28 L44 30 Q38 25 32 25 Q26 25 20 30 Z" fill="#C99450"/>
  <circle cx="28" cy="32" r="1.4" fill="#1F1F1F"/>
  <circle cx="36" cy="32" r="1.4" fill="#1F1F1F"/>
  <path d="M28 38 Q32 41 36 38" stroke="#1F1F1F" stroke-width="1.4" stroke-linecap="round" fill="none"/>
</svg>
