<svg xmlns="http://www.w3.org/2000/svg" viewBox="0 0 64 64" role="img" aria-label="Male avatar slate">
  <defs>
    <linearGradient id="bg-m4" x1="0" y1="0" x2="1" y2="1">
      <stop offset="0" stop-color="#D4DBE5"/>
      <stop offset="1" stop-color="#3F4A5C"/>
    </linearGradient>
  </defs>
  <circle cx="32" cy="32" r="32" fill="url(#bg-m4)"/>
  <path d="M6 64 Q32 46 58 64 Z" fill="#FFFFFF" fill-opacity="0.92"/>
  <path d="M19 28 Q21 18 32 18 Q43 18 45 28 Q44 24 32 24 Q20 24 19 28 Z" fill="#2B1F18"/>
  <ellipse cx="32" cy="33" rx="11" ry="12" fill="#D9A47A"/>
  <path d="M20 28 Q26 22 32 22 Q38 22 44 28 L44 30 Q38 25 32 25 Q26 25 20 30 Z" fill="#2B1F18"/>
  <path d="M22 39 Q24 45 32 46 Q40 45 42 39 Q38 41 32 41 Q26 41 22 39 Z" fill="#2B1F18"/>
  <circle cx="28" cy="32" r="1.4" fill="#1F1F1F"/>
  <circle cx="36" cy="32" r="1.4" fill="#1F1F1F"/>
  <path d="M28 38 Q32 40 36 38" stroke="#1F1F1F" stroke-width="1.2" stroke-linecap="round" fill="none"/>
</svg>
